<mxfile host="app.diagrams.net" agent="Mozilla/5.0 (Windows NT 10.0; Win64; x64) AppleWebKit/537.36 (KHTML, like Gecko) Chrome/132.0.0.0 YaBrowser/25.2.0.0 Safari/537.36" version="26.2.12">
  <diagram name="horace.health" id="c7558073-3199-34d8-9f00-42111426c3f3">
    <mxGraphModel dx="1703" dy="927" grid="1" gridSize="10" guides="1" tooltips="1" connect="1" arrows="1" fold="1" page="1" pageScale="1" pageWidth="1169" pageHeight="827" background="none" math="0" shadow="0">
      <root>
        <mxCell id="0" />
        <mxCell id="1" parent="0" />
        <mxCell id="8YpFU-TR1FdMiD2u0GPq-145" value="" style="rounded=0;whiteSpace=wrap;html=1;shadow=0;glass=0;sketch=0;strokeColor=#000000;strokeWidth=1;fontSize=22;" parent="1" vertex="1">
          <mxGeometry x="20" y="20" width="1130" height="660" as="geometry" />
        </mxCell>
        <mxCell id="8YpFU-TR1FdMiD2u0GPq-118" value="" style="rounded=0;whiteSpace=wrap;html=1;dashed=1;strokeColor=#0000FF;" parent="1" vertex="1">
          <mxGeometry x="560" y="120" width="560" height="520" as="geometry" />
        </mxCell>
        <mxCell id="8YpFU-TR1FdMiD2u0GPq-131" value="" style="rounded=1;whiteSpace=wrap;html=1;dashed=1;dashPattern=1 4;fillColor=#f8cecc;strokeColor=#b85450;" parent="1" vertex="1">
          <mxGeometry x="610" y="430" width="460" height="193" as="geometry" />
        </mxCell>
        <mxCell id="8YpFU-TR1FdMiD2u0GPq-105" value="" style="rounded=0;whiteSpace=wrap;html=1;dashed=1;strokeColor=#00FF00;" parent="1" vertex="1">
          <mxGeometry x="40" y="120" width="480" height="520" as="geometry" />
        </mxCell>
        <mxCell id="8YpFU-TR1FdMiD2u0GPq-99" value="" style="rounded=1;whiteSpace=wrap;html=1;dashed=1;dashPattern=1 4;" parent="1" vertex="1">
          <mxGeometry x="70" y="220" width="200" height="313" as="geometry" />
        </mxCell>
        <mxCell id="63" value="actuators" style="text;spacingTop=-5;align=center" parent="1" vertex="1">
          <mxGeometry x="150" y="233.0000000000001" width="30" height="20" as="geometry" />
        </mxCell>
        <mxCell id="68" value="" style="edgeStyle=elbowEdgeStyle;elbow=horizontal;strokeColor=#990000;strokeWidth=2;exitX=0;exitY=0.25;exitDx=0;exitDy=0;entryX=1;entryY=0.5;entryDx=0;entryDy=0;" parent="1" source="8YpFU-TR1FdMiD2u0GPq-101" target="8YpFU-TR1FdMiD2u0GPq-97" edge="1">
          <mxGeometry width="100" height="100" relative="1" as="geometry">
            <mxPoint x="750" y="713" as="sourcePoint" />
            <mxPoint x="750" y="724" as="targetPoint" />
            <Array as="points">
              <mxPoint x="300" y="400" />
            </Array>
          </mxGeometry>
        </mxCell>
        <mxCell id="69" value="" style="edgeStyle=segmentEdgeStyle;strokeColor=#990000;strokeWidth=2;entryX=1;entryY=0.5;entryDx=0;entryDy=0;exitX=0;exitY=0.5;exitDx=0;exitDy=0;" parent="1" source="8YpFU-TR1FdMiD2u0GPq-100" target="8YpFU-TR1FdMiD2u0GPq-96" edge="1">
          <mxGeometry width="100" height="100" relative="1" as="geometry">
            <mxPoint x="700" y="724" as="sourcePoint" />
            <mxPoint x="620" y="593" as="targetPoint" />
            <Array as="points">
              <mxPoint x="470" y="313" />
              <mxPoint x="470" y="313" />
            </Array>
          </mxGeometry>
        </mxCell>
        <mxCell id="8YpFU-TR1FdMiD2u0GPq-96" value="Sensor contacts" style="rounded=1;whiteSpace=wrap;html=1;" parent="1" vertex="1">
          <mxGeometry x="110" y="283" width="120" height="60" as="geometry" />
        </mxCell>
        <mxCell id="8YpFU-TR1FdMiD2u0GPq-97" value="LEDs" style="rounded=1;whiteSpace=wrap;html=1;" parent="1" vertex="1">
          <mxGeometry x="110" y="363" width="120" height="60" as="geometry" />
        </mxCell>
        <mxCell id="8YpFU-TR1FdMiD2u0GPq-98" value="Photodiodes" style="rounded=1;whiteSpace=wrap;html=1;" parent="1" vertex="1">
          <mxGeometry x="110" y="444" width="120" height="60" as="geometry" />
        </mxCell>
        <mxCell id="8YpFU-TR1FdMiD2u0GPq-100" value="Bioimpendance&lt;br&gt;converter" style="rounded=1;whiteSpace=wrap;html=1;" parent="1" vertex="1">
          <mxGeometry x="350" y="283" width="120" height="60" as="geometry" />
        </mxCell>
        <mxCell id="8YpFU-TR1FdMiD2u0GPq-101" value="Optical data acquisition system" style="rounded=1;whiteSpace=wrap;html=1;" parent="1" vertex="1">
          <mxGeometry x="350" y="400" width="120" height="60" as="geometry" />
        </mxCell>
        <mxCell id="8YpFU-TR1FdMiD2u0GPq-104" value="" style="edgeStyle=elbowEdgeStyle;elbow=horizontal;strokeColor=#990000;strokeWidth=2;entryX=0;entryY=0.75;entryDx=0;entryDy=0;exitX=1;exitY=0.5;exitDx=0;exitDy=0;" parent="1" source="8YpFU-TR1FdMiD2u0GPq-98" target="8YpFU-TR1FdMiD2u0GPq-101" edge="1">
          <mxGeometry width="100" height="100" relative="1" as="geometry">
            <mxPoint x="380" y="425" as="sourcePoint" />
            <mxPoint x="330" y="480" as="targetPoint" />
            <Array as="points">
              <mxPoint x="300" y="460" />
            </Array>
          </mxGeometry>
        </mxCell>
        <mxCell id="8YpFU-TR1FdMiD2u0GPq-106" value="sensor module" style="text;spacingTop=-5;align=center" parent="1" vertex="1">
          <mxGeometry x="250" y="140.0000000000001" width="30" height="20" as="geometry" />
        </mxCell>
        <mxCell id="8YpFU-TR1FdMiD2u0GPq-109" value="MCU" style="rounded=0;whiteSpace=wrap;html=1;strokeColor=#82b366;fillColor=#d5e8d4;" parent="1" vertex="1">
          <mxGeometry x="700" y="264" width="100" height="100" as="geometry" />
        </mxCell>
        <mxCell id="8YpFU-TR1FdMiD2u0GPq-110" value="" style="line;strokeWidth=1;html=1;perimeter=backbonePerimeter;points=[];outlineConnect=0;" parent="1" vertex="1">
          <mxGeometry x="700" y="333" width="100" height="10" as="geometry" />
        </mxCell>
        <mxCell id="8YpFU-TR1FdMiD2u0GPq-112" value="bluetooth" style="text;html=1;strokeColor=none;fillColor=none;align=center;verticalAlign=middle;whiteSpace=wrap;rounded=0;" parent="1" vertex="1">
          <mxGeometry x="720" y="341" width="60" height="20" as="geometry" />
        </mxCell>
        <mxCell id="8YpFU-TR1FdMiD2u0GPq-113" value="" style="shape=link;html=1;entryX=0;entryY=0.5;entryDx=0;entryDy=0;" parent="1" target="8YpFU-TR1FdMiD2u0GPq-109" edge="1">
          <mxGeometry width="100" relative="1" as="geometry">
            <mxPoint x="470" y="312.5" as="sourcePoint" />
            <mxPoint x="690" y="310" as="targetPoint" />
          </mxGeometry>
        </mxCell>
        <mxCell id="8YpFU-TR1FdMiD2u0GPq-114" value="I2C" style="edgeLabel;html=1;align=center;verticalAlign=middle;resizable=0;points=[];" parent="8YpFU-TR1FdMiD2u0GPq-113" vertex="1" connectable="0">
          <mxGeometry x="0.2149" y="-2" relative="1" as="geometry">
            <mxPoint x="30.02" y="-1.41" as="offset" />
          </mxGeometry>
        </mxCell>
        <mxCell id="8YpFU-TR1FdMiD2u0GPq-116" value="" style="shape=link;html=1;exitX=1;exitY=0.5;exitDx=0;exitDy=0;entryX=0.007;entryY=0.661;entryDx=0;entryDy=0;entryPerimeter=0;" parent="1" source="8YpFU-TR1FdMiD2u0GPq-101" target="8YpFU-TR1FdMiD2u0GPq-109" edge="1">
          <mxGeometry width="100" relative="1" as="geometry">
            <mxPoint x="610" y="500" as="sourcePoint" />
            <mxPoint x="670" y="350" as="targetPoint" />
            <Array as="points">
              <mxPoint x="600" y="430" />
              <mxPoint x="600" y="330" />
            </Array>
          </mxGeometry>
        </mxCell>
        <mxCell id="8YpFU-TR1FdMiD2u0GPq-117" value="SPI" style="edgeLabel;html=1;align=center;verticalAlign=middle;resizable=0;points=[];" parent="8YpFU-TR1FdMiD2u0GPq-116" vertex="1" connectable="0">
          <mxGeometry x="-0.4635" y="-2" relative="1" as="geometry">
            <mxPoint x="41" y="-55.5" as="offset" />
          </mxGeometry>
        </mxCell>
        <mxCell id="8YpFU-TR1FdMiD2u0GPq-119" value="main module" style="text;spacingTop=-5;align=center" parent="1" vertex="1">
          <mxGeometry x="840" y="140.0000000000001" width="30" height="20" as="geometry" />
        </mxCell>
        <mxCell id="8YpFU-TR1FdMiD2u0GPq-120" value="Accelerometer &amp;amp;&lt;br&gt;gyroscope" style="rounded=1;whiteSpace=wrap;html=1;" parent="1" vertex="1">
          <mxGeometry x="580" y="150" width="120" height="60" as="geometry" />
        </mxCell>
        <mxCell id="8YpFU-TR1FdMiD2u0GPq-121" value="" style="shape=link;html=1;exitX=0.5;exitY=1;exitDx=0;exitDy=0;" parent="1" source="8YpFU-TR1FdMiD2u0GPq-120" edge="1">
          <mxGeometry width="100" relative="1" as="geometry">
            <mxPoint x="620" y="252" as="sourcePoint" />
            <mxPoint x="640" y="310" as="targetPoint" />
          </mxGeometry>
        </mxCell>
        <mxCell id="8YpFU-TR1FdMiD2u0GPq-142" style="edgeStyle=orthogonalEdgeStyle;rounded=0;orthogonalLoop=1;jettySize=auto;html=1;entryX=0.25;entryY=1;entryDx=0;entryDy=0;startArrow=classic;startFill=1;fontSize=22;" parent="1" source="8YpFU-TR1FdMiD2u0GPq-122" target="8YpFU-TR1FdMiD2u0GPq-112" edge="1">
          <mxGeometry relative="1" as="geometry" />
        </mxCell>
        <mxCell id="8YpFU-TR1FdMiD2u0GPq-122" value="USB" style="rounded=1;whiteSpace=wrap;html=1;" parent="1" vertex="1">
          <mxGeometry x="630" y="450" width="120" height="60" as="geometry" />
        </mxCell>
        <mxCell id="8YpFU-TR1FdMiD2u0GPq-143" style="edgeStyle=orthogonalEdgeStyle;rounded=0;orthogonalLoop=1;jettySize=auto;html=1;entryX=0.75;entryY=1;entryDx=0;entryDy=0;startArrow=classic;startFill=1;fontSize=22;" parent="1" source="8YpFU-TR1FdMiD2u0GPq-123" target="8YpFU-TR1FdMiD2u0GPq-112" edge="1">
          <mxGeometry relative="1" as="geometry" />
        </mxCell>
        <mxCell id="8YpFU-TR1FdMiD2u0GPq-123" value="PMIC" style="rounded=1;whiteSpace=wrap;html=1;" parent="1" vertex="1">
          <mxGeometry x="780" y="450" width="120" height="60" as="geometry" />
        </mxCell>
        <mxCell id="8YpFU-TR1FdMiD2u0GPq-124" value="" style="endArrow=classic;html=1;exitX=1;exitY=0.5;exitDx=0;exitDy=0;entryX=0;entryY=0.5;entryDx=0;entryDy=0;" parent="1" source="8YpFU-TR1FdMiD2u0GPq-122" target="8YpFU-TR1FdMiD2u0GPq-123" edge="1">
          <mxGeometry width="50" height="50" relative="1" as="geometry">
            <mxPoint x="390" y="480" as="sourcePoint" />
            <mxPoint x="440" y="430" as="targetPoint" />
          </mxGeometry>
        </mxCell>
        <mxCell id="8YpFU-TR1FdMiD2u0GPq-126" style="edgeStyle=orthogonalEdgeStyle;rounded=0;orthogonalLoop=1;jettySize=auto;html=1;" parent="1" source="8YpFU-TR1FdMiD2u0GPq-125" target="8YpFU-TR1FdMiD2u0GPq-123" edge="1">
          <mxGeometry relative="1" as="geometry" />
        </mxCell>
        <mxCell id="8YpFU-TR1FdMiD2u0GPq-125" value="Boost" style="rounded=1;whiteSpace=wrap;html=1;" parent="1" vertex="1">
          <mxGeometry x="920" y="450" width="120" height="60" as="geometry" />
        </mxCell>
        <mxCell id="8YpFU-TR1FdMiD2u0GPq-140" style="edgeStyle=orthogonalEdgeStyle;rounded=0;orthogonalLoop=1;jettySize=auto;html=1;startArrow=classic;startFill=1;fontSize=22;" parent="1" source="8YpFU-TR1FdMiD2u0GPq-127" target="8YpFU-TR1FdMiD2u0GPq-123" edge="1">
          <mxGeometry relative="1" as="geometry" />
        </mxCell>
        <mxCell id="8YpFU-TR1FdMiD2u0GPq-127" value="LiPo battery" style="rounded=1;whiteSpace=wrap;html=1;" parent="1" vertex="1">
          <mxGeometry x="780" y="540" width="120" height="60" as="geometry" />
        </mxCell>
        <mxCell id="8YpFU-TR1FdMiD2u0GPq-130" value="FLASH" style="rounded=1;whiteSpace=wrap;html=1;" parent="1" vertex="1">
          <mxGeometry x="940" y="180" width="120" height="60" as="geometry" />
        </mxCell>
        <mxCell id="8YpFU-TR1FdMiD2u0GPq-132" value="battery and PM" style="text;spacingTop=-5;align=center" parent="1" vertex="1">
          <mxGeometry x="980" y="600.0000000000001" width="30" height="20" as="geometry" />
        </mxCell>
        <mxCell id="8YpFU-TR1FdMiD2u0GPq-133" value="LCD display" style="rounded=1;whiteSpace=wrap;html=1;" parent="1" vertex="1">
          <mxGeometry x="940" y="264" width="120" height="60" as="geometry" />
        </mxCell>
        <mxCell id="8YpFU-TR1FdMiD2u0GPq-134" value="buttons" style="rounded=1;whiteSpace=wrap;html=1;" parent="1" vertex="1">
          <mxGeometry x="940" y="346.5" width="120" height="60" as="geometry" />
        </mxCell>
        <mxCell id="8YpFU-TR1FdMiD2u0GPq-135" value="" style="endArrow=none;html=1;exitX=1;exitY=0.5;exitDx=0;exitDy=0;entryX=0;entryY=0.5;entryDx=0;entryDy=0;" parent="1" source="8YpFU-TR1FdMiD2u0GPq-109" target="8YpFU-TR1FdMiD2u0GPq-134" edge="1">
          <mxGeometry width="50" height="50" relative="1" as="geometry">
            <mxPoint x="390" y="490" as="sourcePoint" />
            <mxPoint x="440" y="440" as="targetPoint" />
            <Array as="points">
              <mxPoint x="880" y="314" />
              <mxPoint x="880" y="377" />
            </Array>
          </mxGeometry>
        </mxCell>
        <mxCell id="8YpFU-TR1FdMiD2u0GPq-136" value="" style="endArrow=none;html=1;exitX=0;exitY=0.5;exitDx=0;exitDy=0;entryX=0.5;entryY=0;entryDx=0;entryDy=0;" parent="1" source="8YpFU-TR1FdMiD2u0GPq-130" target="8YpFU-TR1FdMiD2u0GPq-109" edge="1">
          <mxGeometry width="50" height="50" relative="1" as="geometry">
            <mxPoint x="390" y="490" as="sourcePoint" />
            <mxPoint x="440" y="440" as="targetPoint" />
            <Array as="points">
              <mxPoint x="750" y="210" />
            </Array>
          </mxGeometry>
        </mxCell>
        <mxCell id="8YpFU-TR1FdMiD2u0GPq-137" value="" style="shape=link;html=1;startArrow=classic;startFill=1;entryX=0;entryY=0.5;entryDx=0;entryDy=0;" parent="1" target="8YpFU-TR1FdMiD2u0GPq-133" edge="1">
          <mxGeometry width="100" relative="1" as="geometry">
            <mxPoint x="800" y="293.5" as="sourcePoint" />
            <mxPoint x="900" y="293.5" as="targetPoint" />
          </mxGeometry>
        </mxCell>
        <mxCell id="8YpFU-TR1FdMiD2u0GPq-138" value="SPI" style="edgeLabel;html=1;align=center;verticalAlign=middle;resizable=0;points=[];" parent="8YpFU-TR1FdMiD2u0GPq-137" vertex="1" connectable="0">
          <mxGeometry x="0.153" relative="1" as="geometry">
            <mxPoint as="offset" />
          </mxGeometry>
        </mxCell>
        <mxCell id="8YpFU-TR1FdMiD2u0GPq-139" value="Wearable bracelet. Main module is TinyPICO" style="text;html=1;strokeColor=none;fillColor=none;align=center;verticalAlign=middle;whiteSpace=wrap;rounded=0;fontSize=22;" parent="1" vertex="1">
          <mxGeometry x="310" y="40" width="550" height="20" as="geometry" />
        </mxCell>
      </root>
    </mxGraphModel>
  </diagram>
</mxfile>
